<?xml version="1.0" encoding="utf-8"?>
<!-- Generator: Adobe Illustrator 26.1.0, SVG Export Plug-In . SVG Version: 6.00 Build 0)  -->
<svg version="1.1" xmlns="http://www.w3.org/2000/svg" xmlns:xlink="http://www.w3.org/1999/xlink" x="0px" y="0px"
	 viewBox="0 0 500 500" style="enable-background:new 0 0 500 500;" xml:space="preserve">
<style type="text/css">
	.st0{fill:#FFFFFF;}
</style>
<g id="Layer_2">
</g>
<g id="Layer_1">
	<g>
		<path d="M35,371c0-81.33,0-162.67,0-244c0.65-4.23,1.28-8.46,1.96-12.68c4.51-27.85,18.38-49.61,42.37-64.67
			c17.98-11.29,38.11-14.53,58.81-14.58c71.16-0.17,142.32-0.15,213.48,0.02c10.61,0.03,21.33,0.55,31.82,2.05
			c28.14,4.04,50,18.3,65.12,42.46c11.25,17.98,14.39,38.12,14.41,58.85c0.1,72.66,0.07,145.32-0.01,217.98
			c-0.01,6.81-0.39,13.64-1.06,20.42c-2.89,29.12-15.68,52.66-39.99,69.42c-18.73,12.91-40.11,16.61-62.23,16.66
			c-71.49,0.18-142.99,0.14-214.48-0.02c-9.95-0.02-19.96-0.72-29.84-1.95c-39.12-4.84-70.03-34.03-77.55-72.87
			C36.72,382.43,35.93,376.7,35,371z M162.24,189.86c10.56-19.16,36.26-37.74,60.99-43.63c38.61-9.19,72.37,0.63,100.97,27.22
			c3.34-3.06,6.39-5.85,10.12-9.28c-1.57-1.17-2.87-1.97-3.96-2.98c-54.33-50.43-141.44-39.16-181.19,23.45
			c-3.83,6.03-4.49,6.28-12.72,4.3c25.26-43.36,62.52-66.18,112.69-68.39c0-4.2,0-8.38,0-12.87c-2.07,0-3.72-0.09-5.35,0.01
			c-54.18,3.53-93.95,29.57-119.76,77.07c-2.19,4.03-4.42,5.24-8.77,5.19c-20.16-0.22-40.33-0.11-60.49-0.07
			c-1.61,0-3.83-0.19-4.73,0.72c-3.63,3.7-6.86,7.8-11.07,12.72c26.43,0,51.35,0,76.67,0c-0.42,1.76-0.66,3.04-1.04,4.27
			c-6.15,20.24-7.59,40.79-4.79,61.77c9.05,67.67,68.28,121.12,136.65,121.35c59.52,0.2,102.85-27.66,130.26-80.32
			c1.7-3.27,3.38-4.53,7.1-4.49c19.66,0.2,39.33,0.11,58.99,0.06c1.6,0,3.79,0.08,4.69-0.86c3.49-3.64,6.56-7.67,10.75-12.71
			c-25.66,0-49.7,0-74.15,0c4.18-14.44,6.74-28.38,6.45-42.96c-4.54,0-8.6,0-13.05,0c-0.13,2.4-0.04,4.56-0.4,6.65
			c-1.84,10.63-3.83,21.24-5.69,31.87c-0.62,3.56-2.45,4.71-6.16,4.69c-25.66-0.17-51.33-0.09-76.99-0.1c-1.43,0-2.85-0.2-5.13-0.37
			c1.69-2.06,2.81-3.46,3.96-4.83c24.22-28.84,48.44-57.67,72.65-86.51c0.96-1.15,2.09-2.24,2.73-3.55c1.54-3.17,1.15-6.57-2.53-7.2
			c-6.07-1.05-12.22-2.22-18,2.37c-30.66,24.35-61.5,48.48-92.29,72.67c-1.33,1.05-2.75,1.99-4.13,2.98
			c0.61-2.07,1.72-3.47,2.88-4.83c17.67-20.63,35.35-41.24,53.02-61.87c1.08-1.26,2.37-2.46,3.05-3.93c1.52-3.26,0.7-6.68-2.86-7.1
			c-6.24-0.73-12.47-1.86-18.46,2.83c-28.98,22.71-58.26,45.04-87.45,67.49c-1.36,1.05-2.78,2.01-4.18,3.02
			c0.5-1.83,1.45-3.11,2.49-4.33c16.63-19.54,33.34-39.02,49.8-58.7c1.68-2.01,3.31-5.9,2.44-7.68c-0.89-1.84-4.87-2.99-7.52-3.02
			c-21.99-0.23-43.99-0.13-65.99-0.13C169.51,189.86,166.22,189.86,162.24,189.86z"/>
		<path class="st0" d="M162.24,189.86c3.97,0,7.26,0,10.55,0c22,0,43.99-0.1,65.99,0.13c2.64,0.03,6.63,1.18,7.52,3.02
			c0.87,1.78-0.77,5.67-2.44,7.68c-16.47,19.68-33.17,39.16-49.8,58.7c-1.03,1.21-1.99,2.49-2.49,4.33c1.39-1,2.82-1.97,4.18-3.02
			c29.18-22.45,58.46-44.78,87.45-67.49c5.99-4.69,12.22-3.56,18.46-2.83c3.56,0.41,4.38,3.84,2.86,7.1
			c-0.68,1.47-1.97,2.67-3.05,3.93c-17.67,20.63-35.35,41.25-53.02,61.87c-1.16,1.36-2.27,2.75-2.88,4.83
			c1.38-0.99,2.79-1.94,4.13-2.98c30.79-24.19,61.63-48.32,92.29-72.67c5.77-4.59,11.92-3.42,18-2.37c3.68,0.64,4.07,4.04,2.53,7.2
			c-0.64,1.32-1.77,2.41-2.73,3.55c-24.21,28.84-48.43,57.68-72.65,86.51c-1.15,1.38-2.28,2.78-3.96,4.83
			c2.27,0.17,3.7,0.37,5.13,0.37c25.66,0.02,51.33-0.07,76.99,0.1c3.71,0.02,5.53-1.13,6.16-4.69c1.87-10.63,3.85-21.24,5.69-31.87
			c0.36-2.09,0.27-4.25,0.4-6.65c4.45,0,8.51,0,13.05,0c0.29,14.57-2.26,28.52-6.45,42.96c24.45,0,48.49,0,74.15,0
			c-4.19,5.05-7.27,9.08-10.75,12.71c-0.9,0.93-3.09,0.85-4.69,0.86c-19.66,0.05-39.33,0.14-58.99-0.06
			c-3.72-0.04-5.4,1.22-7.1,4.49c-27.41,52.66-70.74,80.52-130.26,80.32c-68.37-0.23-127.6-53.69-136.65-121.35
			c-2.81-20.97-1.36-41.53,4.79-61.77c0.38-1.23,0.61-2.51,1.04-4.27c-25.33,0-50.24,0-76.67,0c4.21-4.92,7.43-9.02,11.07-12.72
			c0.9-0.92,3.12-0.72,4.73-0.72c20.16-0.04,40.33-0.15,60.49,0.07c4.35,0.05,6.58-1.16,8.77-5.19
			c25.8-47.5,65.58-73.55,119.76-77.07c1.63-0.11,3.28-0.01,5.35-0.01c0,4.49,0,8.67,0,12.87c-50.17,2.21-87.42,25.03-112.69,68.39
			c8.23,1.98,8.89,1.73,12.72-4.3c39.75-62.61,126.86-73.88,181.19-23.45c1.09,1.02,2.39,1.81,3.96,2.98
			c-3.74,3.42-6.79,6.22-10.12,9.28c-28.6-26.59-62.36-36.41-100.97-27.22C198.5,152.11,172.8,170.7,162.24,189.86z M202.8,297.36
			c19.22-22.82,38.4-45.6,57.59-68.38c-0.2-0.16-0.4-0.33-0.6-0.49c-33.26,25.73-66.52,51.46-99.73,77.16
			c34.73,56.78,115.67,67.76,163.89,19.74c3.04,2.92,6.08,5.84,9.12,8.75c-27.64,29.52-78.73,45.61-127.22,26.43
			c-23.82-9.42-42.89-24.91-56.49-46.58c-21.9-34.9-24.34-71.96-10.33-110.43c-8.88-0.77-8.85-0.76-11.32,6.91
			c-6.17,19.23-7.54,38.88-4.45,58.76c8.4,54.12,50.59,96.95,104.65,106.53c53.05,9.4,106.8-16.5,133.35-64.28
			c0.86-1.55,1.58-3.17,2.72-5.47c-2.51,0-4.27,0-6.04,0c-29.82,0-59.65,0.09-89.47-0.14c-2.75-0.02-6.57-1.35-7.86-3.37
			c-0.9-1.42,1.06-5.54,2.77-7.6c17.14-20.63,34.5-41.08,51.78-61.59c1.04-1.24,1.98-2.57,2.97-3.85c-2.24,0.52-3.72,1.58-5.15,2.7
			c-28.06,22-56.11,43.99-84.15,66c-12.58,9.88-12.56,9.9-25.31,0.2C203.38,298.25,203.31,298.08,202.8,297.36z M223.62,204.06
			c-0.9-0.5-1.17-0.78-1.44-0.78c-21.82-0.04-43.63-0.1-65.45,0.06c-1.32,0.01-3.28,1.54-3.83,2.84c-2.07,4.89-4.05,9.87-5.41,15
			c-6.09,22.88-4.85,45.38,4.05,68.31C175.83,260.7,199.67,232.44,223.62,204.06z"/>
		<path d="M202.8,297.36c0.52,0.73,0.59,0.89,0.71,0.99c12.75,9.7,12.73,9.68,25.31-0.2c28.04-22.01,56.1-44.01,84.15-66
			c1.43-1.12,2.91-2.18,5.15-2.7c-0.99,1.29-1.93,2.61-2.97,3.85c-17.28,20.51-34.64,40.96-51.78,61.59
			c-1.71,2.06-3.67,6.18-2.77,7.6c1.28,2.02,5.11,3.34,7.86,3.37c29.82,0.23,59.65,0.14,89.47,0.14c1.77,0,3.54,0,6.04,0
			c-1.14,2.3-1.86,3.92-2.72,5.47c-26.55,47.78-80.3,73.68-133.35,64.28c-54.06-9.58-96.25-52.41-104.65-106.53
			c-3.09-19.88-1.72-39.52,4.45-58.76c2.46-7.67,2.44-7.68,11.32-6.91c-14.01,38.46-11.57,75.53,10.33,110.43
			c13.6,21.67,32.67,37.16,56.49,46.58c48.49,19.18,99.59,3.1,127.22-26.43c-3.04-2.91-6.07-5.83-9.12-8.75
			c-48.22,48.02-129.17,37.04-163.89-19.74c33.21-25.69,66.47-51.43,99.73-77.16c0.2,0.16,0.4,0.33,0.6,0.49
			C241.2,251.76,222.01,274.54,202.8,297.36z"/>
		<path d="M223.62,204.06c-23.95,28.38-47.79,56.64-72.07,85.43c-8.91-22.93-10.14-45.43-4.05-68.31c1.36-5.12,3.34-10.11,5.41-15
			c0.55-1.3,2.51-2.83,3.83-2.84c21.81-0.16,43.63-0.09,65.45-0.06C222.45,203.29,222.71,203.56,223.62,204.06z"/>
	</g>
</g>
</svg>
